<?xml version="1.0" encoding="UTF-8" standalone="no"?>
<!-- Created with Inkscape (http://www.inkscape.org/) -->

<svg
   version="1.1"
   id="svg1"
   width="64"
   height="64"
   viewBox="0 370 850 850"
   sodipodi:docname="GVA.svg"
   inkscape:version="1.4 (86a8ad7, 2024-10-11)"
   xmlns:inkscape="http://www.inkscape.org/namespaces/inkscape"
   xmlns:sodipodi="http://sodipodi.sourceforge.net/DTD/sodipodi-0.dtd"
   xmlns="http://www.w3.org/2000/svg"
   xmlns:svg="http://www.w3.org/2000/svg">
  <defs
     id="defs1" />
  <sodipodi:namedview
     id="namedview1"
     pagecolor="#505050"
     bordercolor="#eeeeee"
     borderopacity="1"
     inkscape:showpageshadow="0"
     inkscape:pageopacity="0"
     inkscape:pagecheckerboard="0"
     inkscape:deskcolor="#505050"
     showgrid="false"
     inkscape:zoom="0.72173439"
     inkscape:cx="593.01594"
     inkscape:cy="790.457"
     inkscape:window-width="2560"
     inkscape:window-height="1334"
     inkscape:window-x="2869"
     inkscape:window-y="-11"
     inkscape:window-maximized="1"
     inkscape:current-layer="g1" />
  <g
     inkscape:groupmode="layer"
     inkscape:label="Image"
     id="g1">
    <path
       style="fill:#ffffff"
       d="M 404.00063,1099.0007 303.6696,998.668 l 13.16588,-13.16588 13.16587,-13.16587 110.98281,110.98135 c 75.13352,75.1325 110.7028,111.138 110.11595,111.4664 -2.48512,1.3907 -31.69268,4.5494 -42.06755,4.5494 h -4.7009 z m 35.74811,91.6821 c -32.12609,-8.9409 -60.28953,-23.2375 -85.81727,-43.5636 -10.46201,-8.3301 -22.25908,-19.6556 -63.4335,-60.8978 l -37.16868,-37.2298 13.17222,-13.1599 13.17222,-13.1599 85.32882,85.3308 c 46.93085,46.9319 85.02926,85.3137 84.66313,85.2929 -0.36613,-0.021 -4.82875,-1.1966 -9.91694,-2.6127 z M 464.63993,1059.64 353.66952,948.66808 l 13.16587,-13.16588 13.16588,-13.16588 100.3607,100.33188 100.3607,100.3319 -0.40375,8.3333 c -0.68909,14.2224 -3.42724,37.9972 -4.49966,39.0696 -0.1149,0.1149 -50.1456,-49.7284 -111.17933,-110.763 z M 489.00055,984.00062 403.66974,898.66785 416.83487,885.50272 430,872.33759 l 39.72842,39.66456 c 21.85063,21.81551 42.90406,43.11457 46.7854,47.33123 27.20439,29.55474 45.64569,63.09512 55.80715,101.50002 1.23695,4.675 2.19531,8.5 2.1297,8.5 -0.0656,0 -38.51817,-38.3998 -85.45012,-85.33278 z M 324.23774,895.41436 c 2.12704,-16.943 2.20367,-71.89732 0.12374,-88.74765 -3.2537,-26.35957 -12.88151,-57.52799 -28.26196,-91.49339 l -4.71496,-10.41226 15.61529,-31.58459 15.61529,-31.58459 -12.47424,-30.1258 c -11.84066,-28.59568 -12.60112,-30.21179 -14.97227,-31.81862 -5.98637,-4.05673 -6.92074,-12.59008 -1.95956,-17.8962 4.65408,-4.97767 12.2611,-4.97767 16.91518,0 3.49354,3.73644 4.15106,8.5486 1.82468,13.35425 l -1.38439,2.85978 1.88439,3.49769 c 1.82341,3.38449 9.80636,12.53705 10.93494,12.53705 0.56712,0 0.64545,-0.38542 1.96478,-9.66667 2.28918,-16.10406 8.01097,-30.97754 16.19236,-42.09119 9.77515,-13.27859 20.96921,-22.15822 51.12565,-40.55515 19.57707,-11.94298 24.17998,-15.7532 28.2123,-23.35366 1.87343,-3.5312 1.97448,-10.94117 0.19547,-14.33334 -1.53095,-2.91916 -4.85648,-6.49153 -7.17304,-7.70546 -7.68845,-4.02893 -15.92534,-1.78345 -30.9014,8.42414 -22.0711,15.04351 -29.40184,25.08296 -26.77062,36.66238 l 0.54105,2.38106 -5.44573,2.45422 c -2.99515,1.34983 -5.69933,2.29749 -6.0093,2.10591 -0.30997,-0.19157 -1.0706,-2.62726 -1.69029,-5.41265 -1.4423,-6.48287 -0.91114,-12.14068 1.76789,-18.83126 2.32191,-5.79869 2.15609,-7.88396 -0.82649,-10.39365 -1.40656,-1.18354 -2.79053,-1.68468 -4.65244,-1.68468 -2.35554,0 -3.18399,0.5018 -7.44885,4.51187 -5.22349,4.91143 -10.69587,9.48813 -11.345,9.48813 -0.22503,0 -2.04011,-2.1556 -4.03353,-4.79022 l -3.6244,-4.79022 6.43552,-6.12228 c 11.0341,-10.49702 18.27044,-22.24811 23.37825,-37.96395 4.38315,-13.4862 6.05728,-24.35806 6.05728,-39.33624 v -9.37121 l 5.16666,5.03376 c 5.93741,5.78467 11.17354,8.79989 18.56401,10.69006 15.0628,3.85241 31.88546,-1.80268 41.48344,-13.94503 l 2.58853,-3.27474 2.76509,4.20571 c 5.58111,8.48888 16.1856,16.33043 26.09893,19.299 8.58568,2.57101 19.7126,2.49543 27.66086,-0.18789 l 3.38964,-1.14433 -0.27063,8.1291 c -0.20174,6.05965 0.022,9.45791 0.8787,13.34879 2.16599,9.83685 7.79071,19.70491 15.24061,26.73827 l 3.72697,3.51858 4.52026,-2.27067 c 5.00148,-2.51241 13.0494,-5.25205 19.18692,-6.53154 4.51605,-0.94146 20.02002,-1.17984 23.85778,-0.36683 l 2.52445,0.5348 -3.75826,4.13187 c -4.99094,5.48709 -8.97792,12.41188 -11.6988,20.31908 -2.18005,6.33548 -2.22927,6.72389 -2.21524,17.47946 0.0134,10.26615 0.13992,11.37805 1.8966,16.66667 2.15807,6.49705 3.94132,10.2153 7.26349,15.14508 l 2.3441,3.47842 -3.51691,1.61009 c -15.42636,7.06242 -27.20928,21.18594 -31.78575,38.09974 -2.04046,7.54122 -2.04112,20.46419 -0.001,27.97584 0.7929,2.92005 1.71941,5.58695 2.05892,5.92645 0.37859,0.37859 2.58128,-0.31542 5.69648,-1.79482 6.27037,-2.97779 11.98323,-8.46218 14.96254,-14.36415 l 2.1088,-4.17752 -1.36839,-2.82671 c -2.31037,-4.77258 -1.64415,-9.59406 1.84069,-13.32119 7.33335,-7.84323 20.12425,-2.55588 20.12425,8.31873 0,3.58393 -2.16392,7.57843 -5.19044,9.58128 -2.3818,1.5762 -3.07572,3.05295 -14.98683,31.89394 l -12.48939,30.24121 0.002,24.60681 c 0.003,34.15768 1.13102,44.44642 6.70888,61.2007 7.11533,21.37239 19.86673,40.38181 41.35872,61.65639 l 9.89179,9.79172 -45.17235,45.16869 -45.17234,45.16869 -17.64789,-17.85636 c -15.58447,-15.76856 -22.99157,-24.33608 -26.59457,-30.76095 -0.38565,-0.68769 -14.53697,6.12579 -59.01542,28.41432 l -58.50814,29.31891 z m 57.09387,-112.58098 0.002,-70.83334 h -35.40465 c -28.06243,0 -35.33345,0.17282 -35.06126,0.83333 0.18887,0.45833 1.60871,3.83334 3.15519,7.5 11.2843,26.75466 20.38231,56.79487 23.26335,76.81186 2.24286,15.58311 2.89032,27.57302 2.85418,52.85482 l -0.0348,24.33333 20.61228,-10.33333 20.61227,-10.33334 z m 168.29057,10.14299 c -14.74066,-15.9506 -23.73042,-28.57738 -31.30938,-43.97633 -5.63523,-11.44968 -9.00975,-21.20657 -11.29808,-32.66667 -2.49338,-12.48696 -3.01473,-20.69259 -3.01473,-47.44912 v -24.88422 h -37 -37 l 0.009,32.50001 c 0.0249,93.64367 5.46688,128.94538 24.35315,157.97571 5.4102,8.31609 7.80269,11.11602 20.24632,23.69425 l 11.05042,11.16995 34.9596,-34.95961 34.9596,-34.9596 z m -84.43941,-52.80966 -0.18278,-11.16667 -2.5,-0.20691 -2.5,-0.20691 v -8.29309 -8.29309 h -8.33333 -8.33334 v -7 -7 h 8.33334 8.33333 v -8.66667 -8.66667 h 6.98008 6.98008 l 0.18659,8.5 0.18658,8.5 8.5,0.18659 8.5,0.18658 v 6.98009 6.98008 h -8.66666 -8.66667 v 8.29109 8.2911 l -2.16667,0.2089 -2.16666,0.20891 -0.18279,11.16667 -0.18279,11.16666 h -1.96776 -1.96776 z m -49.84485,96.4977 c 10.26414,-5.1346 18.66207,-9.4187 18.66207,-9.52024 0,-0.10153 -1.07166,-2.7255 -2.38147,-5.83103 -11.68486,-27.70456 -15.58132,-63.27585 -15.60716,-142.47977 l -0.0114,-34.83334 h -39.36525 -39.36525 l -12.96808,26.42391 c -7.13245,14.53314 -12.96808,26.68314 -12.96808,27 0,0.31764 18.99225,0.5761 42.33333,0.5761 h 42.33333 v 74 c 0,40.7 0.15207,74.00001 0.33793,74.00001 0.18586,0 8.73586,-4.20104 19,-9.33564 z m 97.23863,-216.43854 c 2.25354,-5.37578 3.98567,-9.88583 3.84918,-10.02231 -0.13649,-0.13649 -2.61311,0.41476 -5.50362,1.225 -6.61685,1.85478 -17.15216,2.01097 -23.58879,0.34973 -9.68538,-2.49972 -20.56661,-9.71681 -26.03818,-17.2701 l -1.80856,-2.49664 -2.87373,3.72488 c -3.52129,4.56426 -10.6795,10.26052 -16.17602,12.87233 -6.63617,3.15336 -11.91504,4.27623 -20.10351,4.27623 -8.18846,0 -13.46733,-1.12287 -20.10351,-4.27623 -5.49651,-2.61181 -12.65472,-8.30807 -16.17602,-12.87233 l -2.87373,-3.72488 -1.80855,2.49664 c -5.47158,7.55329 -16.3528,14.77038 -26.03819,17.2701 -6.43663,1.66124 -16.97193,1.50505 -23.58879,-0.34973 -2.8905,-0.81024 -5.3572,-1.37142 -5.48155,-1.24708 -0.12435,0.12435 1.60386,4.6344 3.84046,10.02232 l 4.06655,9.79623 h 88.15461 88.15461 z M 350.72078,598.77785 c 8.32809,-2.174 17.12997,-9.24749 20.99289,-16.8706 l 1.67822,-3.31181 -1.65557,-1.96754 c -3.70416,-4.40213 -2.61239,-12.10132 2.2759,-16.04978 4.83263,-3.90349 12.74909,-2.98717 16.48271,1.90786 1.44823,1.89872 1.85331,3.23862 2.04789,6.77381 0.21413,3.89036 0.0359,4.7098 -1.52042,6.99097 l -1.76298,2.58406 1.86965,3.69531 c 4.2357,8.37172 14.30437,15.45202 24.13844,16.97419 13.57148,2.10067 27.94764,-4.9879 34.32011,-16.9225 l 1.92096,-3.59765 -1.75429,-2.5851 c -1.36472,-2.01102 -1.7543,-3.39335 -1.7543,-6.22465 0,-4.68858 1.53528,-7.84837 4.89146,-10.06722 2.19396,-1.45047 3.4425,-1.77163 6.84886,-1.76175 3.65052,0.0106 4.4808,0.26658 6.71273,2.06968 5.09918,4.11945 6.25108,11.72788 2.45803,16.23566 l -1.67483,1.99043 1.87295,3.51274 c 4.1197,7.7265 14.10396,15.45842 21.79694,16.87976 2.3577,0.43561 2.53779,0.36502 2.15398,-0.84426 -2.41046,-7.5947 -3.14261,-24.15824 -1.45709,-32.96412 1.99103,-10.402 6.30931,-20.3089 12.44022,-28.54007 3.98725,-5.35315 12.38335,-13.68043 15.87031,-15.74023 1.45084,-0.85703 1.97311,-1.56611 1.66695,-2.2632 -7.16126,-16.30517 -8.12059,-35.2443 -2.61552,-51.63578 0.87051,-2.59199 1.46145,-4.83577 1.31318,-4.98618 -1.07593,-1.09152 -16.07067,5.74837 -21.31152,9.7213 -9.22946,6.99657 -13.52485,11.63717 -23.29532,25.16744 -10.73141,14.861 -25.09851,27.6084 -38.77864,34.40688 l -6.89269,3.4254 v 5.85557 c 0,3.22056 -0.44087,8.38371 -0.97971,11.47366 -1.00189,5.74524 -3.43625,14.49138 -4.2839,15.39114 -0.76721,0.81439 -11.7492,-3.786 -11.64754,-4.87918 0.0489,-0.52547 0.72984,-3.35539 1.51327,-6.28873 2.21982,-8.3114 2.94923,-16.79199 2.10877,-24.51768 -0.39644,-3.64412 -0.87762,-6.87941 -1.06929,-7.18955 -0.19168,-0.31013 0.93555,-0.88568 2.50495,-1.279 16.59637,-4.15931 32.78299,-16.48133 46.3435,-35.27887 6.4953,-9.00376 13.41723,-17.26192 17.68514,-21.09914 l 3.34225,-3.00497 -4.36988,-4.52642 c -9.29201,-9.62484 -15.18354,-21.85188 -17.477,-36.27104 l -0.39765,-2.5 h -5.33123 c -13.31706,0 -28.49601,-5.84521 -38.19281,-14.70754 l -3.70534,-3.38647 -2.8551,1.95732 c -4.52605,3.10285 -9.32248,5.31631 -15.65012,7.22222 -5.05995,1.52408 -7.06972,1.76773 -14.53831,1.76253 -8.41155,-0.006 -10.06404,-0.26981 -20.04431,-3.20156 -1.26917,-0.37282 -1.44221,0.017 -2.19743,4.95041 -2.03435,13.28928 -6.95058,29.29196 -12.00271,39.06976 -1.32619,2.56666 -2.50866,4.8765 -2.62772,5.13297 -0.11906,0.25647 1.26982,1.21948 3.08641,2.14001 1.8166,0.92054 4.39048,2.9443 5.71974,4.49725 l 2.41685,2.82354 2.82459,-2.69788 c 7.44106,-7.10729 19.30947,-15.58838 27.85329,-19.90381 7.53812,-3.80744 13.21169,-5.19149 19.95889,-4.8689 5.12607,0.24508 6.53641,0.5997 10.83583,2.72459 8.81777,4.35797 14.99688,12.80874 16.64702,22.76703 1.53782,9.28044 -2.09917,19.45314 -9.91845,27.74198 -4.6124,4.8894 -8.87817,7.83962 -24.61846,17.02624 -26.83079,15.65944 -41.30137,27.32219 -50.10581,40.38341 -4.21087,6.24673 -5.53591,8.88399 -8.05585,16.03372 -3.19735,9.07168 -6.48576,28.96608 -5.14617,31.13358 0.67687,1.0952 8.08583,0.8184 13.09508,-0.48924 z M 371.8417,438.95643 c -2.19341,-1.19014 -3.84171,-4.15064 -3.84171,-6.9001 0,-2.60414 3.30559,-6.41743 6.03648,-6.9636 4.3938,-0.87876 8.89685,2.81022 8.89685,7.28846 0,5.87339 -5.91867,9.38205 -11.09162,6.57524 z m -75.04806,86.98213 c 1.58016,-1.86715 6.02317,-7.77941 9.87336,-13.13836 5.20182,-7.24024 7.77102,-10.21943 10,-11.59579 3.52976,-2.17957 9.60121,-3.55259 12.93982,-2.92626 l 2.36535,0.44374 -3.82461,4.81288 c -2.10354,2.64708 -6.2941,8.31697 -9.31235,12.59975 -3.01826,4.28277 -6.48652,8.54867 -7.70726,9.47977 -3.28489,2.50551 -7.3914,3.71907 -12.58479,3.71907 h -4.62253 z"
       id="path1" />
  </g>
</svg>
