<svg xmlns="http://www.w3.org/2000/svg" viewBox="0 0 600 600">
  <!-- Fondo amarillo dentro del círculo -->
  <clipPath id="circleClip">
    <circle cx="300" cy="300" r="290"/>
  </clipPath>
  <g clip-path="url(#circleClip)">
    <rect x="10" y="10" width="580" height="580" fill="#ffcc00"/>

    <!-- Franjas rojas -->
    <rect x="10" y="65" width="580" height="50" fill="#d40000"/>
    <rect x="10" y="165" width="580" height="50" fill="#d40000"/>
    <rect x="10" y="265" width="580" height="50" fill="#d40000"/>
    <rect x="10" y="365" width="580" height="50" fill="#d40000"/>
    <rect x="10" y="465" width="580" height="50" fill="#d40000"/>

    <!-- Franja azul junto al asta -->
    <rect x="10" y="10" width="100" height="580" fill="#0072bb"/>

    <!-- Motivos dorados sencillos (simulados como pequeños rectángulos) -->
    <rect x="20" y="40" width="80" height="10" fill="#ffd700"/>
    <rect x="20" y="80" width="80" height="10" fill="#ffd700"/>
    <rect x="20" y="120" width="80" height="10" fill="#ffd700"/>
    <rect x="20" y="160" width="80" height="10" fill="#ffd700"/>
    <rect x="20" y="200" width="80" height="10" fill="#ffd700"/>
    <rect x="20" y="240" width="80" height="10" fill="#ffd700"/>
    <rect x="20" y="280" width="80" height="10" fill="#ffd700"/>
    <rect x="20" y="320" width="80" height="10" fill="#ffd700"/>
    <rect x="20" y="360" width="80" height="10" fill="#ffd700"/>
    <rect x="20" y="400" width="80" height="10" fill="#ffd700"/>
    <rect x="20" y="440" width="80" height="10" fill="#ffd700"/>
    <rect x="20" y="480" width="80" height="10" fill="#ffd700"/>
    <rect x="20" y="520" width="80" height="10" fill="#ffd700"/>
  </g>
</svg>