<svg xmlns="http://www.w3.org/2000/svg" width="1080" height="1080">
  <polygon points="
    20,20
    500,20
    450,80
    125,80
    125,350
    210,350
    210,130
    310,130
    310,350
    500,350
    500,150
    900,150
    850,220
    600,220
    600,350
    850,350
    850,430
    600,430
    600,560
    850,560
    900,630
    780,630
    500,630
    260,770
    20,630
    20,1060
    125,1060
    125,720
    125,780
    260,860
    395,780
    395,1060
    500,1060
    500,1030
    550,980
    550,680
    700,680
    700,680
    700,780
    550,780
    550,830
    700,830
    700,1060
    1060,1060
    1060,720
    950,720
    950,980
    780,980
    780,780
    950,780
    950,720
    780,720
    780,630
    500,630
    500,430
    310,430
    310,590
    260,630
    210,590
    210,430
    20,430
    "
    fill="white"
  />
</svg>